<svg
    fill="none"
    width="20"
    height="20"
    viewBox="0 0 20 20"
    xmlns="http://www.w3.org/2000/svg"
>
    <path
        fill-rule="evenodd"
        clip-rule="evenodd"
        d="M7.075 0.955837H12.925C14.9417 0.955837 16.5833 2.55166 16.5833 4.46749C16.5833 5.58749 16.0217 6.59917 15.1517 7.245C16.0217 7.89167 16.5833 8.90251 16.5833 10.0233C16.5833 11.9383 14.9417 13.5342 12.925 13.5342C12.1033 13.5342 11.3442 13.27 10.7333 12.8267V15.5783C10.7333 17.4942 9.0925 19.09 7.075 19.09C5.05834 19.09 3.41667 17.4942 3.41667 15.5783C3.41667 14.4583 3.97833 13.4475 4.84833 12.8008C3.97833 12.1542 3.41667 11.1433 3.41667 10.0233C3.41667 8.90251 3.97833 7.89167 4.84833 7.245C3.97833 6.59917 3.41667 5.58749 3.41667 4.46749C3.41667 2.55166 5.05834 0.955837 7.075 0.955837ZM9.26666 13.5342H7.075C5.88334 13.5342 4.88333 14.4467 4.88333 15.5783C4.88333 16.7108 5.88334 17.6225 7.075 17.6225C8.2675 17.6225 9.26666 16.7108 9.26666 15.5783V13.5342ZM10.7333 10.0233C10.7333 8.89085 11.7325 7.97834 12.925 7.97834C14.1167 7.97834 15.1167 8.89085 15.1167 10.0233C15.1167 11.155 14.1167 12.0675 12.925 12.0675C11.7325 12.0675 10.7333 11.155 10.7333 10.0233ZM7.0475 7.97918C5.8675 7.99251 4.88333 8.90001 4.88333 10.0233C4.88333 11.155 5.88334 12.0675 7.075 12.0675H9.26666V7.97834H7.075L7.0475 7.97918ZM9.26666 6.51166V2.42333H7.075C5.88334 2.42333 4.88333 3.335 4.88333 4.46749C4.88333 5.59999 5.88334 6.51166 7.075 6.51166H9.26666ZM10.7333 6.51166H12.925C14.1167 6.51166 15.1167 5.59999 15.1167 4.46749C15.1167 3.335 14.1167 2.42333 12.925 2.42333H10.7333V6.51166Z"
        fill="black"
    />
</svg>