<svg
    width="20"
    height="20"
    viewBox="0 0 20 20"
    fill="none"
    xmlns="http://www.w3.org/2000/svg"
>
    <path
        fill="black"
        d="M9.99996 0C7.62545 0.000100956 5.32845 0.866489 3.51997 2.44414C1.71148 4.02179 0.509525 6.20776 0.12916 8.6109C-0.251206 11.014 0.214844 13.4775 1.44392 15.5606C2.67299 17.6437 4.58488 19.2104 6.8375 19.9804C7.3375 20.0701 7.52499 19.7625 7.52499 19.4934C7.52499 19.2499 7.51248 18.4424 7.51248 17.5838C4.99999 18.0579 4.35 16.9558 4.15 16.3791C3.92808 15.8182 3.57628 15.3211 3.12501 14.9308C2.77501 14.7386 2.27501 14.2644 3.1125 14.2516C3.43228 14.2872 3.73899 14.4013 4.00663 14.5842C4.27427 14.7671 4.49496 15.0135 4.64999 15.3025C4.78676 15.5544 4.97067 15.7762 5.19118 15.9551C5.41169 16.134 5.66446 16.2665 5.93502 16.3451C6.20557 16.4237 6.48859 16.4468 6.76786 16.413C7.04712 16.3792 7.31715 16.2893 7.56245 16.1483C7.60574 15.6271 7.83231 15.1398 8.19997 14.7771C5.97499 14.5207 3.65 13.6364 3.65 9.71467C3.63595 8.69568 4.00268 7.7098 4.67499 6.9592C4.36928 6.07357 4.40505 5.10166 4.77499 4.24218C4.77499 4.24218 5.61246 3.97303 7.52497 5.2931C9.16125 4.83169 10.8887 4.83169 12.5249 5.2931C14.4374 3.96022 15.2749 4.24218 15.2749 4.24218C15.6449 5.10165 15.6807 6.07358 15.3749 6.9592C16.0493 7.70851 16.4163 8.69526 16.3999 9.71467C16.3999 13.6492 14.0624 14.5207 11.8374 14.7771C12.0761 15.0251 12.2599 15.3228 12.3764 15.6501C12.4928 15.9774 12.5392 16.3265 12.5124 16.6738C12.5124 18.0452 12.4999 19.1473 12.4999 19.4934C12.4999 19.7625 12.6874 20.0829 13.1874 19.9804C15.4361 19.2041 17.3425 17.6338 18.5663 15.5496C19.7901 13.4655 20.2518 11.0033 19.8688 8.60244C19.4858 6.20163 18.2831 4.0185 16.4754 2.44277C14.6677 0.867039 12.3726 0.00126614 9.99996 0Z"
    />
</svg>
            