<svg
    width="20"
    height="20"
    viewBox="0 0 20 20"
    fill="none"
    xmlns="http://www.w3.org/2000/svg"
>
    <path
        fill="black"
        d="M0 2.32333C0 1.64992 0.225232 1.09436 0.675676 0.656668C1.12612 0.218951 1.71172 0.000102997 2.43243 0.000102997C3.14029 0.000102997 3.71299 0.215577 4.15058 0.646567C4.60102 1.09101 4.82625 1.67012 4.82625 2.38394C4.82625 3.0304 4.60747 3.56911 4.16988 4.0001C3.71944 4.44454 3.12741 4.66676 2.39382 4.66676H2.37452C1.66666 4.66676 1.09396 4.44454 0.656371 4.0001C0.218784 3.55565 0 2.99672 0 2.32333ZM0.250965 20.0001V6.50514H4.53668V20.0001H0.250965ZM6.9112 20.0001H11.1969V12.4647C11.1969 11.9933 11.2484 11.6297 11.3514 11.3738C11.5315 10.9159 11.805 10.5287 12.1718 10.2122C12.5386 9.8957 12.9987 9.73746 13.5521 9.73746C14.9936 9.73746 15.7143 10.7543 15.7143 12.788V20.0001H20V12.2627C20 10.2694 19.5496 8.75766 18.6486 7.72736C17.7477 6.69706 16.5573 6.18191 15.0772 6.18191C13.417 6.18191 12.1236 6.92938 11.1969 8.42433V8.46474H11.1776L11.1969 8.42433V6.50514H6.9112C6.93693 6.93611 6.94981 8.27617 6.94981 10.5253C6.94981 12.7745 6.93693 15.9327 6.9112 20.0001Z"
    />
</svg>