<svg width="20" height="20" viewBox="0 0 20 20" fill="none" xmlns="http://www.w3.org/2000/svg">
    <path
        d="M18.25 10.7242C18.1058 12.2845 17.5202 13.7715 16.5617 15.0112C15.6032 16.2509 14.3115 17.192 12.8377 17.7243C11.3639 18.2567 9.76899 18.3583 8.23954 18.0173C6.7101 17.6762 5.30941 16.9067 4.20137 15.7986C3.09334 14.6906 2.32378 13.2899 1.98275 11.7605C1.64172 10.231 1.74332 8.63608 2.27567 7.16227C2.80802 5.68847 3.7491 4.39675 4.98878 3.43827C6.22846 2.47979 7.71548 1.8942 9.27584 1.75C8.3623 2.98591 7.9227 4.50866 8.03699 6.0413C8.15128 7.57393 8.81187 9.01464 9.89862 10.1014C10.9854 11.1881 12.4261 11.8487 13.9587 11.963C15.4913 12.0773 17.0141 11.6377 18.25 10.7242Z"
        stroke="#5A5A5A" stroke-width="3" stroke-linecap="round" stroke-linejoin="round" />
</svg>